<?xml version="1.0" ?><svg viewBox="0 0 512 512" xmlns="http://www.w3.org/2000/svg"><title/><g id="Solar_energy_for_agriculture"><path d="M453.43,320.61l-31.28-94a67.67,67.67,0,1,0-90.31-63.76c0,1.17,0,2.34.09,3.5H97.73l51.33,154.24h35.56L161.38,366.7A34.37,34.37,0,0,0,127.51,335a2,2,0,0,0-2,1.66,34.38,34.38,0,0,0,30.81,40.1l-18.19,36.06H99.7a44.05,44.05,0,0,0,26-41.7,2,2,0,0,0-1.75-1.91A43.88,43.88,0,0,0,80.3,391V376.23a2,2,0,0,0,.51-1A34.39,34.39,0,0,0,47.32,335h0a2,2,0,0,0-2,1.66,34.39,34.39,0,0,0,31,40.11v23.55a44.08,44.08,0,0,0-1.83,12.51H53.33v4H448.16v-4H405.9V320.61ZM55.51,361.5A30.43,30.43,0,0,1,49,339,30.39,30.39,0,0,1,77.11,372.8,30.27,30.27,0,0,1,55.51,361.5ZM91,383.81A39.87,39.87,0,0,1,121.72,373a40,40,0,0,1-43.26,39.53A40,40,0,0,1,91,383.81Zm356.93-67.2H392l-14.63-43.94h55.94ZM353.14,212.67l18.64,56H316l-18.63-56Zm-41.36,56H256l-18.63-56h55.78Zm-60,0H196l-18.63-56h55.78Zm1.33,4,14.62,43.94H212l-14.63-43.94Zm4.21,0h55.79l14.62,43.94H272Zm60,0h55.79l14.62,43.94H332Zm84.58,47.94v91.08H320.16l45.93-91.08Zm30-51.94H376l-17.25-51.84a67.41,67.41,0,0,0,59.6,11ZM399.51,99.2a63.67,63.67,0,1,1-63.67,63.67A63.74,63.74,0,0,1,399.51,99.2Zm-67.24,71.17a67.41,67.41,0,0,0,17.48,38.3H296l-12.74-38.3Zm-53.21,0,12.75,38.3H236l-12.74-38.3Zm-60,0,12.75,38.3H176l-12.74-38.3Zm-115.78,0h55.78l12.75,38.3H116Zm34,102.07-19.88-59.77h55.78l18.64,56H137.24ZM152,316.61l-14.63-43.94h55.79l14.62,43.94Zm37.15,4h35.81v91.08H182.16a43.64,43.64,0,0,0,10-7.12,44.65,44.65,0,0,0,13.72-33.47,2,2,0,0,0-1.75-1.91A43.92,43.92,0,0,0,160.48,391V377.35Zm-18,63.2A39.92,39.92,0,0,1,201.9,373a40.65,40.65,0,0,1-12.49,28.69,39.85,39.85,0,0,1-18.89,10H158.67A40.06,40.06,0,0,1,171.13,383.81ZM135.69,361.5A30.38,30.38,0,0,1,129.21,339,30.4,30.4,0,0,1,157.3,372.8,30.27,30.27,0,0,1,135.69,361.5Zm20.79,23.78v15a44.57,44.57,0,0,0-1.82,11.4h-11.5Zm72.43,27.52V320.61h132.7l-46.49,92.18H228.91Z"/></g></svg>