<?xml version="1.0" ?><svg data-name="Layer 1" id="Layer_1" viewBox="0 0 64 64" xmlns="http://www.w3.org/2000/svg"><title/><path d="M42,15a7,7,0,1,0,7-7A7.008,7.008,0,0,0,42,15Zm7-5a5,5,0,1,1-5,5A5.006,5.006,0,0,1,49,10Z"/><rect height="4" rx="1" width="2" x="48" y="2"/><rect height="4" rx="1" width="2" x="13" y="2"/><path d="M21.415,5,20,6.415a1,1,0,0,0,1.414,1.414l1.415-1.415A1,1,0,1,0,21.415,5Z"/><path d="M6.414,5A1,1,0,0,0,5,6.414L6.415,7.829A1,1,0,0,0,7.829,6.415Z"/><rect height="2" rx="1" width="4" x="22" y="13"/><rect height="2" rx="1" width="4" x="2" y="13"/><rect height="2" rx="1" width="4" x="58" y="14"/><rect height="2" rx="1" width="4" x="36" y="14"/><path d="M58.192,5.808a1,1,0,0,0-1.414,0L55.364,7.222a1,1,0,0,0,1.414,1.414l1.414-1.414A1,1,0,0,0,58.192,5.808Z"/><path d="M41.222,21.364l-1.414,1.414a1,1,0,0,0,1.414,1.414l1.414-1.414a1,1,0,1,0-1.414-1.414Z"/><path d="M55.364,21.364a1,1,0,0,0,0,1.414l1.414,1.414a1,1,0,0,0,1.414-1.414l-1.414-1.414A1,1,0,0,0,55.364,21.364Z"/><path d="M41.222,5.808a1,1,0,0,0-1.414,1.414l1.414,1.414a1,1,0,1,0,1.414-1.414Z"/><path d="M29.609,36H21a1,1,0,0,0-.8.4l-12,16A1,1,0,0,0,9,54H31v6H29a1,1,0,0,0,0,2h6a1,1,0,0,0,0-2H33V54H55a1,1,0,0,0,.8-1.6l-12-16A1,1,0,0,0,43,36H29.609Zm.85,2h3.082l.326,2H30.133ZM21.5,38h2.773l-.848,2H20Zm-3,4h4.077l-.848,2H17Zm-.162,10H11l1.5-2h6.685ZM14,48l1.5-2h5.381l-.848,2Zm12.15,4H20.51l.848-2h5.118Zm.652-4h-4.6l.848-2h4.074Zm.652-4H23.9l.848-2h3.032ZM25.6,40l.848-2h1.988l-.326,2Zm11.275,6h4.074l.848,2H37.2Zm.978,6-.326-2h5.118l.848,2ZM53,52H45.662l-.847-2H51.5Zm-3-4H43.967l-.848-2H48.5Zm-3-4H42.271l-.848-2H45.5Zm-4.5-6L44,40H40.575l-.848-2Zm-2.4,6H36.546l-.327-2h3.032Zm-2.544-6,.848,2h-2.51l-.326-2ZM35.824,52H28.176l.326-2h7Zm-.652-4H28.828l.327-2h5.69Zm-5.691-4,.326-2h4.386l.326,2Z"/><path d="M8,14a5.931,5.931,0,0,0,2,4.449V19a1,1,0,0,0,.105.447L11,21.236V24a2,2,0,0,0,2,2h2a2,2,0,0,0,2-2V21.236l.895-1.789A1,1,0,0,0,18,19v-.551A5.931,5.931,0,0,0,20,14,6,6,0,0,0,8,14Zm5,10V22h2v2Zm1-14a4,4,0,0,1,4,4,3.964,3.964,0,0,1-1.6,3.18,1,1,0,0,0-.4.8v.786L15.382,20H12.618L12,18.764v-.786a1,1,0,0,0-.4-.8A3.964,3.964,0,0,1,10,14,4,4,0,0,1,14,10Z"/><circle cx="49" cy="25" r="1"/><circle cx="49" cy="29" r="1"/><circle cx="49" cy="33" r="1"/><circle cx="49" cy="37" r="1"/><circle cx="14" cy="29" r="1"/><circle cx="14" cy="33" r="1"/><circle cx="14" cy="37" r="1"/></svg>