<?xml version="1.0" ?><svg id="Layer_1" style="enable-background:new 0 0 70 70;" version="1.1" viewBox="0 0 70 70" xml:space="preserve" xmlns="http://www.w3.org/2000/svg" xmlns:xlink="http://www.w3.org/1999/xlink"><g><g><path d="M37.23,14.65c0,1.87-1.51,3.37-3.37,3.37h-9.14c-1.87,0-3.37-1.51-3.37-3.37c0-1.43,0.89-2.66,2.15-3.15    c-0.09-0.34-0.14-0.7-0.14-1.08c0-2.4,1.96-4.35,4.36-4.35s4.35,1.95,4.35,4.35c0,0.29-0.02,0.57-0.08,0.85h1.87    C35.72,11.28,37.23,12.78,37.23,14.65z"/><g><g><g><polygon points="29.29,33.82 37.53,33.82 36.75,28.09 29.29,28.09      "/><polygon points="18.11,40.55 27.29,40.55 27.29,35.82 18.76,35.82      "/><polygon points="29.29,35.82 29.29,40.55 38.46,40.55 37.81,35.82      "/><polygon points="27.29,28.09 19.83,28.09 19.04,33.82 27.29,33.82      "/><polygon points="29.29,47.29 39.39,47.29 38.74,42.55 29.29,42.55      "/><path d="M53.05,49.29H41.68l0.79,5.73h9.82c1.18,0,2.04-1.12,1.72-2.26L53.05,49.29z"/><polygon points="15.82,42.55 5.37,42.55 4.07,47.29 15.17,47.29      "/><polygon points="16.75,35.82 7.22,35.82 5.92,40.55 16.1,40.55      "/><polygon points="27.29,49.29 16.91,49.29 16.12,55.02 27.29,55.02      "/><path d="M17.02,33.82l0.79-5.73h-7.1c-0.81,0-1.51,0.54-1.72,1.31l-1.21,4.42H17.02z"/><path d="M14.89,49.29H3.52l-0.95,3.47c-0.31,1.14,0.54,2.26,1.72,2.26h9.82L14.89,49.29z"/><path d="M39.55,33.82h9.25l-1.21-4.42c-0.21-0.78-0.92-1.31-1.72-1.31h-7.1L39.55,33.82z"/><polygon points="51.2,42.55 40.75,42.55 41.4,47.29 52.5,47.29      "/><polygon points="39.66,49.29 29.29,49.29 29.29,55.02 40.45,55.02      "/><polygon points="40.48,40.55 50.65,40.55 49.35,35.82 39.83,35.82      "/><polygon points="27.29,47.29 27.29,42.55 17.84,42.55 17.19,47.29      "/></g><rect height="4.49" width="5.36" x="25.61" y="57.02"/><path d="M38.94,65.3v2.2H17.63v-2.2c0-0.99,0.8-1.79,1.79-1.79h17.73C38.14,63.51,38.94,64.31,38.94,65.3z"/></g></g></g><g><g><path d="M60.93,14.66c0,3.08-2.51,5.59-5.6,5.59c-3.08,0-5.59-2.51-5.59-5.59c0-3.09,2.51-5.6,5.59-5.6     C58.42,9.06,60.93,11.57,60.93,14.66z"/></g><g><g><g><g><path d="M51.77,7.05c-0.39,0-0.76-0.23-0.92-0.61l-1.07-2.55c-0.21-0.51,0.03-1.1,0.54-1.31c0.51-0.21,1.09,0.03,1.31,0.54        l1.07,2.55c0.21,0.51-0.03,1.1-0.54,1.31C52.03,7.02,51.9,7.05,51.77,7.05z"/></g></g></g><g><g><g><path d="M46.72,12.1c-0.13,0-0.26-0.03-0.39-0.08l-2.55-1.07c-0.51-0.21-0.75-0.8-0.54-1.31c0.21-0.51,0.8-0.75,1.31-0.54        l2.55,1.07c0.51,0.21,0.75,0.8,0.54,1.31C47.49,11.87,47.11,12.1,46.72,12.1z"/></g></g></g><g><g><g><path d="M44.17,20.28c-0.39,0-0.76-0.23-0.92-0.61c-0.21-0.51,0.03-1.1,0.54-1.31l2.55-1.07c0.51-0.21,1.09,0.03,1.31,0.54        c0.21,0.51-0.03,1.1-0.54,1.31l-2.55,1.07C44.43,20.26,44.3,20.28,44.17,20.28z"/></g></g></g><g><g><g><path d="M50.71,26.81c-0.13,0-0.26-0.03-0.39-0.08c-0.51-0.21-0.75-0.8-0.54-1.31l1.07-2.55c0.21-0.51,0.8-0.75,1.31-0.54        c0.51,0.21,0.75,0.8,0.54,1.31l-1.07,2.55C51.47,26.58,51.1,26.81,50.71,26.81z"/></g></g></g><g><g><g><path d="M59.96,26.81c-0.39,0-0.76-0.23-0.92-0.61l-1.07-2.55c-0.21-0.51,0.03-1.1,0.54-1.31c0.51-0.21,1.09,0.03,1.31,0.54        l1.07,2.55c0.21,0.51-0.03,1.1-0.54,1.31C60.21,26.79,60.08,26.81,59.96,26.81z"/></g></g></g><g><g><g><path d="M66.49,20.28c-0.13,0-0.26-0.03-0.39-0.08l-2.55-1.07c-0.51-0.21-0.75-0.8-0.54-1.31c0.21-0.51,0.8-0.75,1.31-0.54        l2.55,1.07c0.51,0.21,0.75,0.8,0.54,1.31C67.25,20.05,66.88,20.28,66.49,20.28z"/></g></g></g><g><g><g><path d="M63.94,12.1c-0.39,0-0.76-0.23-0.92-0.62c-0.21-0.51,0.03-1.1,0.54-1.31l2.56-1.07c0.51-0.21,1.09,0.03,1.31,0.54        c0.21,0.51-0.03,1.1-0.54,1.31l-2.56,1.07C64.2,12.07,64.07,12.1,63.94,12.1z"/></g></g></g><g><g><g><path d="M58.89,7.05c-0.13,0-0.26-0.03-0.39-0.08c-0.51-0.21-0.75-0.8-0.54-1.31l1.07-2.55c0.21-0.51,0.8-0.75,1.31-0.54        c0.51,0.21,0.75,0.8,0.54,1.31l-1.07,2.55C59.65,6.82,59.28,7.05,58.89,7.05z"/></g></g></g></g></g></g></svg>